# xmcd CD database file
#
# Track frame offsets:
#	150
#	17671
#	46119
#	65405
#	86118
#	113819
#	136258
#	155651
#	190163
#	219053
#
# Disc length: 3256 seconds
#
# Revision: 1
# Processed by: cddbd v1.5.2PL0 Copyright (c) Steve Scherf et al.
# Submitted via: CDex 1.70beta3
#
DISCID=7e0cb60a
DTITLE=Various Artist - CAFE BLUE NOTE organic Disc2
DYEAR=2012
DGENRE=Jazz
TTITLE0=THE FEELING`S GOOD - Marlena Shaw
TTITLE1=PLACES AND SPACES - Donald Byrd
TTITLE2=LOVER TO LOVER - Maxi Anderson
TTITLE3=PEACE OF MIND - Gene Harris
TTITLE4=PLEASE SET ME AT EASE - Bobbi Humphrey
TTITLE5=MONTARA - Bobby Hutcherson
TTITLE6=THE MAN I LOVE - Carmen McRae
TTITLE7=LOVE FOR SALE - Dexter Gordon
TTITLE8=THE SHADOW OF YOUR SMILE - Lou Donaldson
TTITLE9=SINCE I FELL FOR YOU - Lee Morgan
EXTD=YEAR: 2012
EXTT0=
EXTT1=
EXTT2=
EXTT3=
EXTT4=
EXTT5=
EXTT6=
EXTT7=
EXTT8=
EXTT9=
PLAYORDER=
